<?xml version="1.0" encoding="UTF-8"?>
<svg id="Layer_1" data-name="Layer 1" xmlns="http://www.w3.org/2000/svg" viewBox="0 0 1606 97.78">
  <defs>
    <style>
      .cls-1 {
        stroke-width: 0px;
      }
    </style>
  </defs>
  <path class="cls-1" d="m15.59,60.65l-3.51,15.95H4.06L19.29,13.52h10.36l14.96,63.09h-8.02l-3.42-15.95H15.59Zm16.13-6.76l-7.39-34.43-7.3,34.43h14.69Z"/>
  <path class="cls-1" d="m70.52,74.44c-1.53-1.44-2.3-3.72-2.3-6.85V20.28h-13.25v-6.76h20.91v53.62c0,.96.24,1.65.72,2.07.48.42,1.29.63,2.43.63h11.99v6.76h-15.14c-2.04,0-3.83-.72-5.36-2.16Z"/>
  <path class="cls-1" d="m132.35,75.88c-.93-.48-1.73-1.14-2.39-1.98-1.38,1.8-3.21,2.7-5.5,2.7h-8.02c-4.57,0-7.89-.92-9.96-2.75-2.07-1.83-3.11-4.97-3.11-9.42v-1.8c0-9.31,4.39-13.97,13.16-13.97h11.18v-4.51c0-1.86-.57-3.3-1.71-4.33-1.14-1.02-2.82-1.53-5.05-1.53h-13.97v-6.76h13.07c5.23,0,9.09,1.14,11.58,3.42,2.49,2.28,3.74,5.95,3.74,10.99v21.63c0,.9.34,1.58,1.04,2.03.69.45,1.85.68,3.47.68v6.31h-4.96c-.78,0-1.64-.24-2.57-.72Zm-5.36-7.3c.48-.84.72-1.92.72-3.25v-9.91h-11.27c-1.56,0-2.85.51-3.88,1.53-1.02,1.02-1.53,2.31-1.53,3.88v4.51c0,1.56.36,2.7,1.08,3.42s1.86,1.08,3.42,1.08h8.02c1.8,0,2.94-.42,3.42-1.26Z"/>
  <path class="cls-1" d="m184.21,76.6h-28.66v-7.21l21.09-31.18h-19.29v-6.67h27.76v8.02l-20.91,30.37h20.01v6.67Z"/>
  <path class="cls-1" d="m201.88,38.3v-6.76h20.91v38.3h13.34v6.76h-21v-38.3h-13.25Zm21.36-24.78v8.11h-8.56v-8.11h8.56Z"/>
  <path class="cls-1" d="m278.35,75.88c-.93-.48-1.73-1.14-2.39-1.98-1.38,1.8-3.21,2.7-5.5,2.7h-8.02c-4.57,0-7.89-.92-9.96-2.75-2.07-1.83-3.11-4.97-3.11-9.42v-1.8c0-9.31,4.39-13.97,13.16-13.97h11.18v-4.51c0-1.86-.57-3.3-1.71-4.33-1.14-1.02-2.82-1.53-5.05-1.53h-13.97v-6.76h13.07c5.23,0,9.09,1.14,11.58,3.42,2.49,2.28,3.74,5.95,3.74,10.99v21.63c0,.9.34,1.58,1.04,2.03.69.45,1.85.68,3.47.68v6.31h-4.96c-.78,0-1.64-.24-2.57-.72Zm-5.36-7.3c.48-.84.72-1.92.72-3.25v-9.91h-11.27c-1.56,0-2.85.51-3.88,1.53-1.02,1.02-1.53,2.31-1.53,3.88v4.51c0,1.56.36,2.7,1.08,3.42s1.86,1.08,3.42,1.08h8.02c1.8,0,2.94-.42,3.42-1.26Z"/>
  <path class="cls-1" d="m307.59,69.85v-31.54h-6.58v-6.76h13.79v2.43c1.98-1.62,4.39-2.43,7.21-2.43h9.28v7.21h-10.18c-1.92,0-3.37.62-4.33,1.85-.96,1.23-1.47,2.48-1.53,3.74v25.5h9.82v6.76h-24.06v-6.76h6.58Z"/>
  <path class="cls-1" d="m375.68,75.88c-.93-.48-1.73-1.14-2.39-1.98-1.38,1.8-3.21,2.7-5.5,2.7h-8.02c-4.57,0-7.89-.92-9.96-2.75-2.07-1.83-3.11-4.97-3.11-9.42v-1.8c0-9.31,4.39-13.97,13.16-13.97h11.18v-4.51c0-1.86-.57-3.3-1.71-4.33-1.14-1.02-2.82-1.53-5.05-1.53h-13.97v-6.76h13.07c5.23,0,9.09,1.14,11.58,3.42,2.49,2.28,3.74,5.95,3.74,10.99v21.63c0,.9.34,1.58,1.04,2.03.69.45,1.85.68,3.47.68v6.31h-4.96c-.78,0-1.64-.24-2.57-.72Zm-5.36-7.3c.48-.84.72-1.92.72-3.25v-9.91h-11.27c-1.56,0-2.85.51-3.88,1.53-1.02,1.02-1.53,2.31-1.53,3.88v4.51c0,1.56.36,2.7,1.08,3.42s1.86,1.08,3.42,1.08h8.02c1.8,0,2.94-.42,3.42-1.26Z"/>
  <path class="cls-1" d="m458.37,70.02V20.1h-8.11v-6.58h24.06v6.58h-8.11v49.93h8.11v6.58h-24.06v-6.58h8.11Z"/>
  <path class="cls-1" d="m501.72,31.54v2.16c1.86-1.44,4.27-2.16,7.21-2.16h4.15c4.87,0,8.49,1.14,10.86,3.42,2.37,2.28,3.56,5.95,3.56,10.99v30.64h-7.66v-32.44c0-1.8-.53-3.23-1.58-4.28-1.05-1.05-2.48-1.58-4.28-1.58h-5.95c-1.98,0-3.46.53-4.42,1.58-.96,1.05-1.44,2.18-1.44,3.38v33.35h-7.66V31.54h7.21Z"/>
  <path class="cls-1" d="m561.92,76.6h-3.7c-5.29,0-9.16-1.13-11.63-3.38-2.46-2.25-3.7-5.93-3.7-11.04v-16.22c0-5.05,1.25-8.71,3.74-10.99,2.49-2.28,6.35-3.42,11.58-3.42h10.45V13.52h7.66v63.09h-7.21v-2.07c-1.98,1.38-4.39,2.07-7.21,2.07Zm5.32-8.34c.96-1.05,1.44-2.18,1.44-3.38v-26.59h-11.36c-2.22,0-3.91.51-5.05,1.53-1.14,1.02-1.71,2.46-1.71,4.33v19.83c0,1.86.57,3.3,1.71,4.33,1.14,1.02,2.82,1.53,5.05,1.53h5.5c1.98,0,3.45-.53,4.42-1.58Z"/>
  <path class="cls-1" d="m609.87,76.6h-3.06c-4.87,0-8.49-1.14-10.86-3.42-2.37-2.28-3.56-5.95-3.56-11v-30.64h7.66v32.44c0,1.8.53,3.23,1.58,4.28,1.05,1.05,2.48,1.58,4.28,1.58h4.87c1.92,0,3.35-.48,4.28-1.44.93-.96,1.46-2.04,1.58-3.24V31.54h7.66v45.06h-7.21v-2.07c-1.98,1.38-4.39,2.07-7.21,2.07Z"/>
  <path class="cls-1" d="m667.23,73.81c-2.31,1.86-5.66,2.79-10.05,2.79h-13.43v-6.76h14.33c1.62,0,2.85-.35,3.69-1.04.84-.69,1.26-1.7,1.26-3.02v-4.78c0-2.7-1.29-4.05-3.88-4.05h-3.33c-4.21,0-7.34-.92-9.42-2.75-2.07-1.83-3.11-4.73-3.11-8.7v-2.61c0-4.02,1.14-6.92,3.42-8.7,2.28-1.77,5.65-2.66,10.09-2.66h12.08v6.76h-12.98c-1.5,0-2.7.35-3.6,1.04-.9.69-1.35,1.7-1.35,3.02v3.25c0,1.38.41,2.4,1.22,3.06.81.66,1.85.99,3.11.99h3.06c4.02,0,7.09.98,9.19,2.93,2.1,1.95,3.15,4.85,3.15,8.7v4.06c0,3.79-1.16,6.61-3.47,8.47Z"/>
  <path class="cls-1" d="m701.97,73.63c-1.62-1.98-2.43-4.6-2.43-7.84v-27.49h-8.56v-6.76h8.56v-10.81h7.66v10.81h13.16v6.76h-13.16v27.94c0,1.32.33,2.25.99,2.79.66.54,1.68.81,3.06.81h9.1v6.76h-11.36c-3.06,0-5.41-.99-7.03-2.97Z"/>
  <path class="cls-1" d="m745.59,69.85v-31.54h-6.58v-6.76h13.79v2.43c1.98-1.62,4.39-2.43,7.21-2.43h9.28v7.21h-10.18c-1.92,0-3.37.62-4.33,1.85-.96,1.23-1.47,2.48-1.53,3.74v25.5h9.82v6.76h-24.06v-6.76h6.58Z"/>
  <path class="cls-1" d="m785.88,38.3v-6.76h20.91v38.3h13.34v6.76h-21v-38.3h-13.25Zm21.36-24.78v8.11h-8.56v-8.11h8.56Z"/>
  <path class="cls-1" d="m839.5,73.22c-2.46-2.25-3.7-5.93-3.7-11.04v-16.22c0-5.17,1.11-8.86,3.33-11.08,2.22-2.22,5.92-3.33,11.08-3.33h4.24c4.27,0,7.49,1.19,9.69,3.56,2.19,2.37,3.29,5.84,3.29,10.41v11.72h-23.97v6.76c0,1.86.57,3.3,1.71,4.33,1.14,1.02,2.82,1.53,5.05,1.53h14.33v6.76h-13.43c-5.29,0-9.16-1.13-11.63-3.38Zm20.46-29.52c0-1.56-.51-2.85-1.53-3.88-1.02-1.02-2.31-1.53-3.88-1.53h-5.23c-2.16,0-3.68.5-4.55,1.49s-1.31,2.45-1.31,4.37v6.31h16.49v-6.76Z"/>
  <path class="cls-1" d="m910.56,73.81c-2.31,1.86-5.66,2.79-10.05,2.79h-13.43v-6.76h14.33c1.62,0,2.85-.35,3.7-1.04.84-.69,1.26-1.7,1.26-3.02v-4.78c0-2.7-1.29-4.05-3.88-4.05h-3.33c-4.21,0-7.35-.92-9.42-2.75-2.07-1.83-3.11-4.73-3.11-8.7v-2.61c0-4.02,1.14-6.92,3.42-8.7,2.28-1.77,5.65-2.66,10.09-2.66h12.08v6.76h-12.98c-1.5,0-2.7.35-3.61,1.04-.9.69-1.35,1.7-1.35,3.02v3.25c0,1.38.41,2.4,1.22,3.06.81.66,1.85.99,3.11.99h3.06c4.02,0,7.09.98,9.19,2.93,2.1,1.95,3.15,4.85,3.15,8.7v4.06c0,3.79-1.16,6.61-3.47,8.47Z"/>
  <path class="cls-1" d="m991.31,14.15c1.77-4.33,4.25-8.14,7.44-11.45h7.93c-2.88,3.49-5.02,6.41-6.4,8.79-1.38,2.37-2.39,5.03-3.02,7.98-.63,2.94-.95,6.76-.95,11.45v28.3c0,4.69.32,8.5.95,11.45.63,2.94,1.64,5.6,3.02,7.98,1.38,2.37,3.51,5.3,6.4,8.79h-7.93c-3.19-3.3-5.66-7.12-7.44-11.45-1.77-4.33-2.66-9.97-2.66-16.94v-27.94c0-6.97.89-12.62,2.66-16.94Z"/>
  <path class="cls-1" d="m1042.64,73.63c-1.62-1.98-2.43-4.6-2.43-7.84v-27.49h-8.56v-6.76h8.56v-10.81h7.66v10.81h13.16v6.76h-13.16v27.94c0,1.32.33,2.25.99,2.79s1.68.81,3.06.81h9.1v6.76h-11.36c-3.06,0-5.41-.99-7.03-2.97Z"/>
  <path class="cls-1" d="m1081.3,31.54v2.07c1.56-1.38,3.42-2.07,5.59-2.07h.54c4.21,0,7.18,1.2,8.92,3.6,1.98-2.4,4.6-3.6,7.84-3.6h.54c3.66,0,6.37.93,8.11,2.79,1.74,1.86,2.61,5.17,2.61,9.91v32.35h-7.21v-32.44c0-2.46-.26-4.18-.77-5.14-.51-.96-1.67-1.44-3.47-1.44h-.54c-1.8,0-3.05.62-3.74,1.85-.69,1.23-1.07,2.6-1.13,4.1v33.08h-7.21v-32.44c0-2.52-.3-4.25-.9-5.18-.6-.93-1.68-1.4-3.24-1.4h-.54c-1.8,0-3.06.53-3.79,1.58-.72,1.05-1.11,2.24-1.17,3.56v33.89h-7.21V31.54h6.76Z"/>
  <path class="cls-1" d="m1150.02,75.97c-1.77,4.33-4.25,8.14-7.44,11.45h-7.93c2.88-3.49,5.02-6.41,6.4-8.79,1.38-2.37,2.39-5.03,3.02-7.98.63-2.94.95-6.76.95-11.45v-28.3c0-4.69-.32-8.5-.95-11.45-.63-2.94-1.64-5.6-3.02-7.98-1.38-2.37-3.51-5.3-6.4-8.79h7.93c3.18,3.31,5.66,7.12,7.44,11.45,1.77,4.33,2.66,9.97,2.66,16.94v27.94c0,6.97-.89,12.62-2.66,16.94Z"/>
  <path class="cls-1" d="m1237.3,73.63c-1.62-1.98-2.43-4.6-2.43-7.84v-27.49h-8.56v-6.76h8.56v-10.81h7.66v10.81h13.16v6.76h-13.16v27.94c0,1.32.33,2.25.99,2.79s1.68.81,3.06.81h9.1v6.76h-11.36c-3.06,0-5.41-.99-7.03-2.97Z"/>
  <path class="cls-1" d="m1277.5,73.22c-2.46-2.25-3.7-5.93-3.7-11.04v-16.22c0-5.17,1.11-8.86,3.33-11.08,2.22-2.22,5.92-3.33,11.08-3.33h4.24c4.27,0,7.49,1.19,9.69,3.56,2.19,2.37,3.29,5.84,3.29,10.41v11.72h-23.97v6.76c0,1.86.57,3.3,1.71,4.33,1.14,1.02,2.82,1.53,5.05,1.53h14.33v6.76h-13.43c-5.29,0-9.16-1.13-11.63-3.38Zm20.46-29.52c0-1.56-.51-2.85-1.53-3.88-1.02-1.02-2.31-1.53-3.88-1.53h-5.23c-2.16,0-3.68.5-4.55,1.49s-1.31,2.45-1.31,4.37v6.31h16.49v-6.76Z"/>
  <path class="cls-1" d="m1329.59,69.85v-31.54h-6.58v-6.76h13.79v2.43c1.98-1.62,4.39-2.43,7.21-2.43h9.28v7.21h-10.18c-1.92,0-3.37.62-4.33,1.85-.96,1.23-1.47,2.48-1.53,3.74v25.5h9.82v6.76h-24.06v-6.76h6.58Z"/>
  <path class="cls-1" d="m1373.3,31.54v2.07c1.56-1.38,3.42-2.07,5.59-2.07h.54c4.21,0,7.18,1.2,8.92,3.6,1.98-2.4,4.6-3.6,7.84-3.6h.54c3.66,0,6.37.93,8.11,2.79,1.74,1.86,2.61,5.17,2.61,9.91v32.35h-7.21v-32.44c0-2.46-.26-4.18-.77-5.14-.51-.96-1.67-1.44-3.47-1.44h-.54c-1.8,0-3.05.62-3.74,1.85-.69,1.23-1.07,2.6-1.13,4.1v33.08h-7.21v-32.44c0-2.52-.3-4.25-.9-5.18-.6-.93-1.68-1.4-3.24-1.4h-.54c-1.8,0-3.06.53-3.79,1.58-.72,1.05-1.11,2.24-1.17,3.56v33.89h-7.21V31.54h6.76Z"/>
  <path class="cls-1" d="m1418.54,38.3v-6.76h20.91v38.3h13.34v6.76h-21v-38.3h-13.25Zm21.36-24.78v8.11h-8.56v-8.11h8.56Z"/>
  <path class="cls-1" d="m1475.05,31.54v2.16c1.86-1.44,4.27-2.16,7.21-2.16h4.15c4.87,0,8.49,1.14,10.86,3.42,2.37,2.28,3.56,5.95,3.56,10.99v30.64h-7.66v-32.44c0-1.8-.53-3.23-1.58-4.28-1.05-1.05-2.48-1.58-4.28-1.58h-5.95c-1.98,0-3.46.53-4.42,1.58-.96,1.05-1.44,2.18-1.44,3.38v33.35h-7.66V31.54h7.21Z"/>
  <path class="cls-1" d="m1543.68,75.88c-.93-.48-1.73-1.14-2.39-1.98-1.38,1.8-3.21,2.7-5.5,2.7h-8.02c-4.57,0-7.89-.92-9.96-2.75-2.07-1.83-3.11-4.97-3.11-9.42v-1.8c0-9.31,4.38-13.97,13.16-13.97h11.18v-4.51c0-1.86-.57-3.3-1.71-4.33-1.14-1.02-2.83-1.53-5.05-1.53h-13.97v-6.76h13.07c5.23,0,9.09,1.14,11.58,3.42,2.49,2.28,3.74,5.95,3.74,10.99v21.63c0,.9.34,1.58,1.04,2.03.69.45,1.85.68,3.47.68v6.31h-4.96c-.78,0-1.64-.24-2.57-.72Zm-5.36-7.3c.48-.84.72-1.92.72-3.25v-9.91h-11.27c-1.56,0-2.85.51-3.88,1.53s-1.53,2.31-1.53,3.88v4.51c0,1.56.36,2.7,1.08,3.42s1.86,1.08,3.42,1.08h8.02c1.8,0,2.94-.42,3.42-1.26Z"/>
  <path class="cls-1" d="m1579.19,74.44c-1.53-1.44-2.3-3.72-2.3-6.85V20.28h-13.25v-6.76h20.91v53.62c0,.96.24,1.65.72,2.07.48.42,1.29.63,2.43.63h11.99v6.76h-15.14c-2.04,0-3.83-.72-5.36-2.16Z"/>
</svg>