<?xml version="1.0" encoding="UTF-8"?>
<svg id="Layer_1" data-name="Layer 1" xmlns="http://www.w3.org/2000/svg" viewBox="0 0 1591.66 90.11">
  <defs>
    <style>
      .cls-1 {
        stroke-width: 0px;
      }
    </style>
  </defs>
  <path class="cls-1" d="m33.69,79.36l-3.4-15.84h-12.65l-3.49,15.84H0L16.57,10.74h15l16.27,68.62h-14.14Zm-6.11-28.52l-3.64-16.94-3.59,16.94h7.23Z"/>
  <path class="cls-1" d="m75.13,79.36c-2.8,0-5.28-1-7.37-2.96-2.14-2.01-3.22-5.03-3.22-8.97V23.42h-13.16v-12.67h26.73v55.95s15.04,0,15.04,0v12.67h-18.02Z"/>
  <path class="cls-1" d="m133.76,79.36c-1.26,0-2.57-.35-3.92-1.05-.34-.17-.66-.37-.98-.58-1.58,1.07-3.43,1.62-5.49,1.62h-7.97c-5.34,0-9.22-1.14-11.87-3.48-2.72-2.4-4.09-6.3-4.09-11.59v-1.79c0-10.87,5.7-16.86,16.05-16.86h8.12v-1.5c0-1.29-.41-1.81-.71-2.08-.56-.5-1.6-.76-3.02-.76h-16.86v-12.67h15.96c5.94,0,10.48,1.41,13.51,4.18,3.11,2.85,4.68,7.26,4.68,13.12v21.08c.28.05.75.11,1.5.11h2.98v12.23h-7.9Zm-20.53-12.87s.33.19,1.29.19h7.97c.47,0,.77-.04.95-.07.12-.36.18-.85.18-1.42v-6.87h-8.21c-.96,0-1.42.33-1.74.65-.3.3-.65.77-.65,1.74v4.48c0,.97.2,1.28.21,1.3h0Z"/>
  <polygon class="cls-1" points="151.28 79.36 151.28 68.31 169.6 41.23 153.07 41.23 153.07 28.65 186.6 28.65 186.6 40.52 168.53 66.78 185.71 66.78 185.71 79.36 151.28 79.36"/>
  <path class="cls-1" d="m210.45,79.36v-38.04h-13.16v-12.67h26.73v38.05h13.25v12.67h-26.82Zm-.45-54.61v-14.02h14.46v14.02h-14.46Z"/>
  <path class="cls-1" d="m278.78,79.36c-1.26,0-2.57-.35-3.92-1.05-.34-.17-.66-.37-.98-.58-1.58,1.07-3.43,1.62-5.49,1.62h-7.97c-5.34,0-9.22-1.14-11.87-3.48-2.72-2.4-4.09-6.3-4.09-11.59v-1.79c0-10.87,5.7-16.86,16.05-16.86h8.12v-1.5c0-1.29-.41-1.81-.71-2.08-.56-.5-1.6-.76-3.02-.76h-16.86v-12.67h15.96c5.94,0,10.48,1.41,13.51,4.18,3.11,2.85,4.68,7.26,4.68,13.12v21.08c.28.05.75.11,1.5.11h2.98v12.23h-7.9Zm-20.53-12.87s.33.19,1.29.19h7.97c.47,0,.77-.04.95-.07.12-.36.18-.85.18-1.42v-6.87h-8.21c-.96,0-1.42.33-1.74.65-.3.3-.65.77-.65,1.74v4.48c0,.97.2,1.28.21,1.3h0Z"/>
  <path class="cls-1" d="m295.76,79.36v-12.67h6.53v-25.37h-6.53v-12.67h19.66v.55c1.31-.37,2.7-.55,4.18-.55h12.2v13.12h-13.1c-1.41,0-1.79.48-1.95.69-.55.7-.85,1.36-.89,1.97v22.27h9.76v12.67h-29.86Z"/>
  <path class="cls-1" d="m375.46,79.36c-1.26,0-2.57-.35-3.92-1.05-.34-.17-.66-.37-.98-.58-1.58,1.07-3.43,1.62-5.49,1.62h-7.97c-5.34,0-9.22-1.14-11.87-3.48-2.72-2.4-4.09-6.3-4.09-11.59v-1.79c0-10.87,5.7-16.86,16.05-16.86h8.12v-1.5c0-1.29-.41-1.81-.71-2.08-.56-.5-1.6-.76-3.02-.76h-16.86v-12.67h15.96c5.94,0,10.48,1.41,13.51,4.18,3.11,2.85,4.68,7.26,4.68,13.12v21.08c.28.05.75.11,1.5.11h2.98v12.23h-7.9Zm-20.53-12.87s.33.19,1.29.19h7.97c.47,0,.77-.04.95-.07.12-.36.18-.85.18-1.42v-6.87h-8.21c-.96,0-1.42.33-1.74.65-.3.3-.65.77-.65,1.74v4.48c0,.97.2,1.28.21,1.3h0Z"/>
  <polygon class="cls-1" points="444 79.36 444 66.87 452.06 66.87 452.06 23.24 444 23.24 444 10.74 473.86 10.74 473.86 23.24 465.81 23.24 465.81 66.87 473.86 66.87 473.86 79.36 444 79.36"/>
  <path class="cls-1" d="m513.11,79.36v-35.21c0-1.3-.4-1.85-.69-2.15-.3-.3-.84-.69-2.14-.69h-5.91c-.75,0-1.74.1-2.19.6-.58.64-.65,1.07-.65,1.35v36.1h-13.57V28.65h13.12v.48c1.29-.32,2.69-.48,4.18-.48h4.12c5.61,0,9.93,1.42,12.85,4.23,2.95,2.84,4.45,7.24,4.45,13.07v33.42h-13.57Z"/>
  <path class="cls-1" d="m562.08,79.36v-.49c-1.31.32-2.7.49-4.18.49h-3.67c-6,0-10.56-1.39-13.56-4.14-3.08-2.81-4.64-7.24-4.64-13.16v-16.11c0-5.86,1.58-10.27,4.68-13.12,3.03-2.78,7.58-4.18,13.52-4.18h7.4V10.74h13.57v68.62h-13.12Zm-8.75-38.04c-1.42,0-2.47.26-3.03.76-.3.27-.71.78-.71,2.08v19.69c0,1.29.4,1.8.71,2.08.56.5,1.6.76,3.03.76h5.46c.75,0,1.74-.1,2.19-.6.58-.64.65-1.07.65-1.35v-23.43h-8.3Z"/>
  <path class="cls-1" d="m609.7,79.36v-.49c-1.31.32-2.7.49-4.18.49h-3.04c-5.61,0-9.93-1.42-12.85-4.23-2.95-2.84-4.45-7.24-4.45-13.07V28.65h13.57v35.21c0,1.3.4,1.85.69,2.14.3.3.84.69,2.15.69h4.83c1.03,0,1.78-.19,2.11-.53.53-.54.68-1,.73-1.33V28.65h13.57v50.72h-13.12Z"/>
  <path class="cls-1" d="m636.2,79.36v-12.67h17.21c.99,0,1.57-.18,1.78-.35.14-.12.16-.49.16-.7v-4.75c0-.66-.12-.92-.15-.97,0,0,0,0,0,0-.03,0-.24-.08-.72-.08h-3.31c-4.91,0-8.72-1.17-11.33-3.48-2.72-2.4-4.09-6.06-4.09-10.87v-2.6c0-4.95,1.53-8.65,4.55-10.99,2.79-2.17,6.78-3.27,11.85-3.27h14.97v12.67h-15.87c-.56,0-1.32.07-1.77.42-.06.05-.17.13-.17.63v3.22c0,.47.08.7.11.74.09.07.38.31,1.2.31h3.04c4.75,0,8.51,1.25,11.16,3.71,2.71,2.52,4.09,6.16,4.09,10.82v4.03c0,4.69-1.53,8.3-4.56,10.74-2.83,2.28-6.82,3.43-11.85,3.43h-16.32Z"/>
  <path class="cls-1" d="m703.99,79.36c-3.97,0-7.09-1.36-9.29-4.05-2.05-2.51-3.09-5.76-3.09-9.67v-24.32h-8.5v-12.67h8.5v-10.74h13.57v10.74h13.07v12.67h-13.07v24.77c0,.23.02.4.03.51.17.04.49.1,1.01.1h12.02v12.67h-14.26Z"/>
  <path class="cls-1" d="m730.82,79.36v-12.67h6.53v-25.37h-6.53v-12.67h19.66v.55c1.31-.37,2.7-.55,4.18-.55h12.2v13.12h-13.1c-1.41,0-1.79.48-1.95.69-.55.7-.85,1.36-.89,1.97v22.27h9.76v12.67h-29.86Z"/>
  <path class="cls-1" d="m790.52,79.36v-38.04h-13.16v-12.67h26.73v38.05h13.25v12.67h-26.82Zm-.45-54.61v-14.02h14.46v14.02h-14.46Z"/>
  <path class="cls-1" d="m845.16,79.36c-6,0-10.56-1.39-13.56-4.14-3.08-2.81-4.64-7.24-4.64-13.16v-16.11c0-6.01,1.37-10.3,4.19-13.12,2.78-2.78,7.19-4.19,13.12-4.19h4.21c5.08,0,9.05,1.51,11.81,4.49,2.69,2.92,4.06,7.08,4.06,12.36v14.62h-23.81v3.73c0,1.29.4,1.8.71,2.08.56.5,1.6.76,3.03.76h17.21v12.67h-16.32Zm5.79-31.92v-3.73c0-.97-.35-1.44-.65-1.74-.32-.32-.78-.65-1.74-.65h-5.19c-1.48,0-2.14.3-2.28.46-.36.41-.56,1.25-.56,2.37v3.29h10.42Z"/>
  <path class="cls-1" d="m877.89,79.36v-12.67h17.21c.99,0,1.57-.18,1.78-.35.13-.11.16-.44.16-.69v-4.75c0-.66-.12-.92-.15-.97,0,0,0,0,0,0-.03,0-.24-.08-.72-.08h-3.31c-4.91,0-8.72-1.17-11.33-3.48-2.72-2.4-4.09-6.06-4.09-10.87v-2.6c0-4.95,1.53-8.65,4.55-10.99,2.79-2.17,6.78-3.27,11.85-3.27h14.97v12.67h-15.87c-.56,0-1.32.07-1.77.42-.06.04-.17.13-.17.63v3.22c0,.47.08.69.11.74.09.08.38.31,1.2.31h3.04c4.75,0,8.51,1.25,11.16,3.71,2.71,2.52,4.09,6.16,4.09,10.82v4.03c0,4.69-1.53,8.3-4.56,10.74-2.83,2.28-6.82,3.43-11.85,3.43h-16.32Z"/>
  <path class="cls-1" d="m990.52,90.11l-.88-.91c-3.41-3.54-6.1-7.68-8-12.31-1.9-4.64-2.86-10.68-2.86-17.96v-27.75c0-7.28.96-13.32,2.86-17.96,1.89-4.63,4.59-8.77,8-12.31l.88-.91h15.48l-4.04,4.88c-2.75,3.32-4.79,6.13-6.08,8.33-1.21,2.07-2.1,4.44-2.66,7.05-.58,2.71-.87,6.32-.87,10.74v28.11c0,4.42.29,8.04.87,10.74.56,2.61,1.45,4.98,2.66,7.05,1.28,2.2,3.33,5,6.08,8.33l4.04,4.88h-15.48Z"/>
  <path class="cls-1" d="m1042.36,79.36c-3.97,0-7.09-1.36-9.29-4.05-2.05-2.51-3.09-5.76-3.09-9.67v-24.32h-8.5v-12.67h8.5v-10.74h13.57v10.74h13.07v12.67h-13.07v24.77c0,.23.02.4.03.51.17.04.49.1,1.01.1h12.02v12.67h-14.26Z"/>
  <path class="cls-1" d="m1097.57,79.36v-35.21c0-2.08-.21-3.07-.33-3.47-.16-.04-.45-.08-.9-.08h-.54c-.62,0-1,.11-1.12.31-.45.8-.69,1.68-.74,2.68v35.77h-13.12v-35.21c0-2.33-.29-3.22-.39-3.47-.1-.03-.32-.09-.75-.09h-.54c-.82,0-1.23.16-1.3.27-.39.57-.6,1.2-.64,1.93v36.56h-13.12V28.65h12.67v.27c.82-.18,1.68-.27,2.57-.27h.54c3.67,0,6.65.82,8.89,2.43,2.17-1.62,4.77-2.43,7.76-2.43h.54c4.48,0,7.92,1.25,10.23,3.72,2.29,2.45,3.4,6.33,3.4,11.88v35.12h-13.12Z"/>
  <path class="cls-1" d="m1120.44,90.11l4.04-4.88c2.75-3.32,4.79-6.12,6.08-8.33,1.21-2.07,2.1-4.44,2.66-7.05.58-2.71.87-6.32.87-10.74v-28.11c0-4.42-.29-8.04-.87-10.74-.56-2.6-1.45-4.97-2.66-7.05-1.29-2.21-3.33-5.01-6.08-8.33l-4.04-4.88h15.48l.88.91c3.41,3.54,6.1,7.68,8,12.31,1.9,4.64,2.86,10.68,2.86,17.96v27.75c0,7.28-.96,13.32-2.86,17.96-1.9,4.63-4.59,8.77-8,12.31l-.88.91h-15.48Z"/>
  <path class="cls-1" d="m1235.72,79.36c-3.97,0-7.09-1.36-9.29-4.05-2.05-2.51-3.09-5.76-3.09-9.67v-24.32h-8.5v-12.67h8.5v-10.74h13.57v10.74h13.07v12.67h-13.07v24.77c0,.23.02.4.03.51.17.04.49.1,1.01.1h12.02v12.67h-14.26Z"/>
  <path class="cls-1" d="m1280.21,79.36c-6,0-10.56-1.39-13.56-4.14-3.08-2.81-4.64-7.24-4.64-13.16v-16.11c0-6.01,1.37-10.3,4.19-13.12,2.78-2.78,7.19-4.19,13.12-4.19h4.21c5.08,0,9.05,1.51,11.81,4.49,2.69,2.92,4.06,7.08,4.06,12.36v14.62h-23.81v3.73c0,1.29.4,1.8.71,2.08.56.5,1.6.76,3.03.76h17.21v12.67h-16.32Zm5.79-31.92v-3.73c0-.97-.35-1.44-.65-1.74-.32-.32-.78-.65-1.74-.65h-5.19c-1.48,0-2.14.3-2.28.46-.36.41-.56,1.25-.56,2.37v3.29h10.42Z"/>
  <path class="cls-1" d="m1310.89,79.36v-12.67h6.53v-25.37h-6.53v-12.67h19.65v.55c1.31-.37,2.71-.55,4.18-.55h12.2v13.12h-13.09c-1.41,0-1.79.48-1.95.69-.55.7-.85,1.36-.89,1.97v22.27h9.76v12.67h-29.86Z"/>
  <path class="cls-1" d="m1387.6,79.36v-35.21c0-2.08-.21-3.07-.33-3.47-.16-.04-.45-.08-.9-.08h-.54c-.62,0-1,.11-1.12.31-.45.8-.69,1.68-.74,2.68v35.77h-13.12v-35.21c0-2.33-.29-3.22-.39-3.47-.1-.03-.32-.09-.75-.09h-.54c-.82,0-1.23.16-1.3.27-.39.57-.6,1.2-.64,1.93v36.56h-13.12V28.65h12.67v.27c.82-.18,1.68-.27,2.57-.27h.54c3.67,0,6.65.82,8.89,2.43,2.17-1.62,4.77-2.43,7.76-2.43h.54c4.48,0,7.92,1.25,10.23,3.72,2.29,2.45,3.4,6.33,3.4,11.88v35.12h-13.12Z"/>
  <path class="cls-1" d="m1418.93,79.36v-38.04h-13.16v-12.67h26.73v38.05h13.25v12.67h-26.82Zm-.45-54.61v-14.02h14.46v14.02h-14.46Z"/>
  <path class="cls-1" d="m1479.9,79.36v-35.21c0-1.3-.4-1.85-.69-2.15-.3-.3-.84-.69-2.14-.69h-5.91c-.75,0-1.74.1-2.19.6-.58.64-.65,1.08-.65,1.35v36.1h-13.57V28.65h13.12v.48c1.29-.32,2.69-.48,4.18-.48h4.12c5.61,0,9.93,1.42,12.85,4.23,2.95,2.84,4.45,7.24,4.45,13.07v33.42h-13.57Z"/>
  <path class="cls-1" d="m1535.6,79.36c-1.26,0-2.57-.35-3.92-1.05-.34-.17-.66-.37-.98-.58-1.58,1.07-3.43,1.62-5.49,1.62h-7.97c-5.34,0-9.22-1.14-11.87-3.48-2.72-2.4-4.09-6.3-4.09-11.59v-1.79c0-10.87,5.7-16.86,16.05-16.86h8.12v-1.5c0-1.29-.41-1.8-.71-2.08-.55-.5-1.6-.76-3.02-.76h-16.85v-12.67h15.96c5.94,0,10.48,1.41,13.51,4.18,3.11,2.85,4.68,7.26,4.68,13.12v21.08c.28.05.75.11,1.5.11h2.98v12.23h-7.9Zm-20.53-12.87s.33.19,1.29.19h7.97c.47,0,.77-.04.95-.07.12-.36.18-.85.18-1.42v-6.87h-8.21c-.96,0-1.42.33-1.74.65-.3.3-.65.77-.65,1.74v4.48c0,.97.2,1.29.21,1.3,0,0,0,0,0,0Z"/>
  <path class="cls-1" d="m1573.65,79.36c-2.8,0-5.28-1-7.37-2.96-2.14-2.01-3.22-5.03-3.22-8.97V23.42h-13.16v-12.67h26.73v55.95s15.04,0,15.04,0v12.67h-18.02Z"/>
</svg>